<?xml version="1.0" standalone="no"?><!DOCTYPE svg PUBLIC "-//W3C//DTD SVG 1.1//EN" "http://www.w3.org/Graphics/SVG/1.1/DTD/svg11.dtd"><svg t="1772070145928" class="icon" viewBox="0 0 1024 1024" version="1.1" xmlns="http://www.w3.org/2000/svg" p-id="2750" xmlns:xlink="http://www.w3.org/1999/xlink" width="200" height="200"><path d="M818.420343 649.612171c-10.139941 4.50971-15.257495 16.427134-11.014868 26.516934 5.457292 13.015432 7.894807 26.053376 7.894807 38.874379 0 19.765159-5.850242 39.531342-17.061584 56.152904-10.821463 15.940041-26.319435 29.662577-44.745087 37.289278-11.409864 4.680603-24.279986 7.387247-37.926798 7.387247-11.698436 0-20.86112 8.991792-20.86112 20.667715 0 11.479449 9.162684 20.470217 20.86112 20.470217 19.063171 0 37.486776-3.606131 53.911864-10.79588 26.228361-10.770298 48.309262-30.342052 63.320141-53.253878 15.015995-22.201651 24.032346-49.866734 24.032346-77.918627 0-18.206664-3.801583-36.388768-11.453866-54.350862-3.218298-7.79964-10.870582-12.625552-19.012006-12.625552C823.734372 648.02707 821.005214 648.514163 818.420343 649.612171M660.097478 585.389474c-33.732266 14.160511-60.884672 41.312918-75.065649 75.263148-4.487198 10.528797 0.436952 22.203698 10.772344 26.712385 10.770298 4.485151 22.469758-0.463558 27.196409-11.234879 9.459442-23.372314 29.200042-43.138496 53.033867-53.010331 10.773368-4.484128 15.501042-16.182564 11.211343-26.712385-3.166109-7.776104-10.963703-12.723789-19.108197-12.723789C665.459602 583.683623 662.729421 584.219835 660.097478 585.389474M543.4989 715.441459c0-94.564749 77.066213-171.143868 172.067914-171.143868 94.324272 0 171.340343 76.579119 171.340343 171.143868s-77.017094 171.827437-171.340343 171.827437C620.565113 887.268896 543.4989 810.006208 543.4989 715.441459M418.615635 63.817468c-53.914934 1.608637-101.536534 13.480013-140.141784 39.095413-71.89954 48.061622-100.220562 138.337695-99.29447 220.814128 0 29.197996 4.240581 57.690934 13.208836 83.111906-16.378016 28.489868-13.647835 59.028395-3.313465 86.887906 10.528797 27.662013 30.073946 52.131311 44.211944 64.951291l2.290159 3.14462 0.193405 0c3.609201 3.340071 8.532327 16.352433 14.382569 30.732955 12.331863 30.563086 27.393907 67.633377 59.517535 93.907787-0.927115 4.022617-2.925632 7.629771-5.849218 11.017938-5.363148 5.140067-12.772908 7.847735-21.301142 9.429767-40.899502 2.901073-109.188818 24.276916-158.37403 71.193459-35.289738 34.388205-60.880579 81.111343-60.880579 142.847405 0 19.571754 15.741519 34.851763 34.607192 34.851763 18.621103 0 34.122145-15.280008 34.122145-34.851763 0-40.871873 17.061584-71.411423 39.532365-93.63968 36.410258-34.828226 86.718037-49.403177 116.791983-52.54882 24.712845-1.803066 47.62467-12.380982 63.562665-28.757974 16.671705-16.427134 26.957978-38.630832 26.957978-64.490803l0-12.331863c0-13.721513-7.848759-25.39539-19.061125-31.002085-23.397896-15.062044-36.216853-45.62513-46.304605-70.971401-8.969279-22.911826-17.061584-43.383066-32.321126-56.592926l-0.682545-0.463558-0.487094-0.706081 0-0.195451c-8.919137-8.335852-20.667715-23.154349-26.710338-39.775912-12.088316-31.44006 9.212826-30.100552 11.015891-54.54529l0.242524 0 0-1.170662c0.441045-6.728238-0.728594-13.016455-3.606131-18.401092-8.725732-20.424168-13.455453-46.283116-13.647835-72.337515-0.293689-29.197996 4.679579-59.053977 14.08888-86.691431l0.487094-1.366114c11.647271-33.877575 30.270421-58.83499 54.594409-75.019601 27.15036-18.400069 62.880119-26.953885 103.045911-27.588335 17.108656-0.706081 40.019459-0.901533 60.201104 3.142573 15.304568 2.243087 28.563546 6.948249 33.92567 15.013949 6.287193 10.138918 15.501042 17.9887 25.833365 22.715351 10.529821 4.705162 22.472827 6.482645 34.367739 4.947685l0.242524-0.243547c10.528797-0.903579 22.912849 8.969279 34.803667 22.446221 21.983687 25.420973 37.485753 61.101613 40.651862 82.013899 2.684132 15.914458 2.243087 33.4396 0 51.668777-2.238994 19.060101-6.968715 39.72884-13.744026 61.0791-3.753487 11.69946-1.074472 23.372314 6.77531 32.366152 17.060561 23.346731 9.211802 37.728276-6.53381 61.295018C542.621926 521.582239 475.012086 611.224886 475.012086 715.441459c0 132.539642 108.019179 240.361323 240.555751 240.361323 53.42477 0 103.096053-17.986653 143.311986-48.329728l1.753947 1.803066 38.900985 39.334867c13.450337 13.016455 34.998095 13.016455 48.450479 0 13.310144-13.472849 13.310144-35.045167 0-48.52518l-38.798655-39.333844-1.803066-1.095961c30.072923-40.680515 48.061622-90.544179 48.061622-144.214543 0-131.172505-106.899682-238.972697-238.072187-240.116753 2.440585-10.090822 4.046153-18.86465 3.559059-27.859511l0-0.194428c-0.632403-18.668175-6.288217-33.949206-15.062044-47.866171 5.850242-19.082614 9.699919-38.630832 12.136412-56.812937 2.684132-24.251334 2.684132-47.623647-0.633427-70.777997-4.77577-30.29498-26.517957-81.06427-56.641021-116.109438-24.714891-29.003568-56.154951-48.966225-92.275613-46.25958-17.789155-24.27487-46.258557-36.193317-76.82062-41.336454-18.910699-3.705392-38.167275-4.533246-54.787814-4.533246C430.314071 63.574944 424.171164 63.7223 418.615635 63.817468" p-id="2751"></path></svg>